<svg width="25" height="26" viewBox="0 0 25 26" fill="none" xmlns="http://www.w3.org/2000/svg">
<path fill-rule="evenodd" clip-rule="evenodd" d="M1.21823 0.554694C0.741702 0.378555 0.219573 0.641897 0.0520259 1.14286C-0.115521 1.64384 0.134976 2.19274 0.611521 2.36888L0.930066 2.48661C1.74421 2.78753 2.27927 2.98695 2.67298 3.19004C3.04277 3.38078 3.20578 3.53517 3.31317 3.70037C3.42324 3.86972 3.50824 4.1023 3.5562 4.56813C3.60638 5.05557 3.60763 5.69044 3.60763 6.63908V10.1283C3.60763 11.9905 3.62425 13.3333 3.79139 14.3592C3.96983 15.4544 4.32608 16.2385 4.99222 16.9772C5.71644 17.7801 6.63448 18.1297 7.72744 18.2927C8.77405 18.4487 10.1031 18.4487 11.7443 18.4487H18.3365C19.241 18.4487 20.002 18.4487 20.6179 18.3695C21.2711 18.2855 21.867 18.1017 22.3871 17.6561C22.9072 17.2105 23.1987 16.6341 23.4089 15.9785C23.607 15.3603 23.7606 14.5768 23.9432 13.6456L24.5638 10.4797L24.565 10.4738L24.5777 10.4069C24.7786 9.34932 24.9475 8.45973 24.9895 7.74422C25.0335 6.99269 24.9522 6.25167 24.4866 5.61528C24.2 5.22372 23.7972 5.00205 23.4308 4.86669C23.057 4.72863 22.6343 4.64876 22.2078 4.59863C21.3699 4.50017 20.3521 4.50018 19.3538 4.50019H5.38787C5.38385 4.45308 5.37951 4.40673 5.37483 4.36118C5.30931 3.72481 5.16733 3.14441 4.82346 2.61539C4.4769 2.08225 4.01611 1.74079 3.47876 1.46362C2.97622 1.20439 2.33765 0.968392 1.58579 0.690538L1.21823 0.554694ZM5.43688 6.42324H19.3157C20.3601 6.42324 21.2792 6.42452 22.0046 6.50976C22.365 6.55212 22.6348 6.61097 22.8243 6.68099C22.9792 6.73822 23.0316 6.78495 23.0392 6.79171C23.0391 6.79157 23.0395 6.79199 23.0392 6.79171C23.1141 6.89608 23.1954 7.08543 23.1637 7.62575C23.1303 8.19442 22.9882 8.95371 22.7716 10.0946L22.7711 10.0975L22.1628 13.2002C21.966 14.2038 21.8336 14.8709 21.6754 15.3643C21.5253 15.8327 21.3843 16.0345 21.2315 16.1654C21.0788 16.2962 20.8624 16.4007 20.3957 16.4607C19.904 16.524 19.2558 16.5257 18.2811 16.5257H11.8142C10.0864 16.5257 8.88752 16.5233 7.98427 16.3887C7.11256 16.2587 6.65205 16.0226 6.31969 15.654C5.92924 15.2212 5.71864 14.7972 5.59439 14.0345C5.45883 13.2024 5.43688 12.0373 5.43688 10.1283V6.42324Z" fill="#111111"/>
<path fill-rule="evenodd" clip-rule="evenodd" d="M7.62217 25.4999C6.10677 25.4999 4.8783 24.2083 4.8783 22.6153C4.8783 21.0221 6.10677 19.7307 7.62217 19.7307C9.13759 19.7307 10.366 21.0221 10.366 22.6153C10.366 24.2083 9.13759 25.4999 7.62217 25.4999ZM6.70755 22.6153C6.70755 23.1463 7.11704 23.5768 7.62217 23.5768C8.12731 23.5768 8.5368 23.1463 8.5368 22.6153C8.5368 22.0843 8.12731 21.6538 7.62217 21.6538C7.11704 21.6538 6.70755 22.0843 6.70755 22.6153Z" fill="#111111"/>
<path fill-rule="evenodd" clip-rule="evenodd" d="M18.5976 25.5C17.0822 25.5 15.8537 24.2085 15.8537 22.6154C15.8537 21.0223 17.0822 19.7309 18.5976 19.7309C20.1129 19.7309 21.3415 21.0223 21.3415 22.6154C21.3415 24.2085 20.1129 25.5 18.5976 25.5ZM17.683 22.6154C17.683 23.1465 18.0925 23.577 18.5976 23.577C19.1027 23.577 19.5122 23.1465 19.5122 22.6154C19.5122 22.0844 19.1027 21.6539 18.5976 21.6539C18.0925 21.6539 17.683 22.0844 17.683 22.6154Z" fill="#111111"/>
</svg>
