<svg width="25" height="25" viewBox="0 0 25 25" fill="none" xmlns="http://www.w3.org/2000/svg">
<path fill-rule="evenodd" clip-rule="evenodd" d="M1.21823 0.0546936C0.741702 -0.121445 0.219573 0.141897 0.0520259 0.642864C-0.115521 1.14384 0.134976 1.69274 0.611521 1.86888L0.930066 1.98661C1.74421 2.28753 2.27927 2.48695 2.67298 2.69004C3.04277 2.88078 3.20578 3.03517 3.31317 3.20037C3.42324 3.36972 3.50824 3.6023 3.5562 4.06813C3.60638 4.55557 3.60763 5.19044 3.60763 6.13908V9.62831C3.60763 11.4905 3.62425 12.8333 3.79139 13.8592C3.96983 14.9544 4.32608 15.7385 4.99222 16.4772C5.71644 17.2801 6.63448 17.6297 7.72744 17.7927C8.77405 17.9487 10.1031 17.9487 11.7443 17.9487H18.3365C19.241 17.9487 20.002 17.9487 20.6179 17.8695C21.2711 17.7855 21.867 17.6017 22.3871 17.1561C22.9072 16.7105 23.1987 16.1341 23.4089 15.4785C23.607 14.8603 23.7606 14.0768 23.9432 13.1456L24.5638 9.97973L24.565 9.97383L24.5777 9.90686C24.7786 8.84932 24.9475 7.95973 24.9895 7.24422C25.0335 6.49269 24.9522 5.75167 24.4866 5.11528C24.2 4.72372 23.7972 4.50205 23.4308 4.36669C23.057 4.22863 22.6343 4.14876 22.2078 4.09863C21.3699 4.00017 20.3521 4.00018 19.3538 4.00019H5.38787C5.38385 3.95308 5.37951 3.90673 5.37483 3.86118C5.30931 3.22481 5.16733 2.64441 4.82346 2.11539C4.4769 1.58225 4.01611 1.24079 3.47876 0.963615C2.97622 0.704388 2.33765 0.468392 1.58579 0.190538L1.21823 0.0546936ZM5.43688 5.92324H19.3157C20.3601 5.92324 21.2792 5.92452 22.0046 6.00976C22.365 6.05212 22.6348 6.11097 22.8243 6.18099C22.9792 6.23822 23.0316 6.28495 23.0392 6.29171C23.0395 6.29199 23.0391 6.29157 23.0392 6.29171C23.1141 6.39608 23.1954 6.58544 23.1637 7.12575C23.1303 7.69442 22.9882 8.45371 22.7716 9.59463L22.7711 9.59748L22.1628 12.7002C21.966 13.7038 21.8336 14.3709 21.6754 14.8643C21.5253 15.3327 21.3843 15.5345 21.2315 15.6654C21.0788 15.7962 20.8624 15.9007 20.3957 15.9607C19.904 16.024 19.2558 16.0257 18.2811 16.0257H11.8142C10.0864 16.0257 8.88752 16.0233 7.98427 15.8887C7.11256 15.7587 6.65205 15.5226 6.31969 15.154C5.92924 14.7212 5.71864 14.2972 5.59439 13.5345C5.45883 12.7024 5.43688 11.5373 5.43688 9.62831V5.92324Z" fill="white"/>
<path fill-rule="evenodd" clip-rule="evenodd" d="M7.62205 24.9999C6.10665 24.9999 4.87817 23.7083 4.87817 22.1153C4.87817 20.5221 6.10665 19.2307 7.62205 19.2307C9.13746 19.2307 10.3659 20.5221 10.3659 22.1153C10.3659 23.7083 9.13746 24.9999 7.62205 24.9999ZM6.70742 22.1153C6.70742 22.6463 7.11692 23.0768 7.62205 23.0768C8.12719 23.0768 8.53668 22.6463 8.53668 22.1153C8.53668 21.5843 8.12719 21.1538 7.62205 21.1538C7.11692 21.1538 6.70742 21.5843 6.70742 22.1153Z" fill="white"/>
<path fill-rule="evenodd" clip-rule="evenodd" d="M18.5976 25.0001C17.0823 25.0001 15.8538 23.7086 15.8538 22.1155C15.8538 20.5223 17.0823 19.231 18.5976 19.231C20.113 19.231 21.3415 20.5223 21.3415 22.1155C21.3415 23.7086 20.113 25.0001 18.5976 25.0001ZM17.683 22.1155C17.683 22.6465 18.0925 23.077 18.5976 23.077C19.1028 23.077 19.5123 22.6465 19.5123 22.1155C19.5123 21.5845 19.1028 21.154 18.5976 21.154C18.0925 21.154 17.683 21.5845 17.683 22.1155Z" fill="white"/>
</svg>
