<svg width="86" height="86" viewBox="0 0 86 86" fill="none" xmlns="http://www.w3.org/2000/svg">
<path d="M43 83C65.0914 83 83 65.0914 83 43C83 20.9086 65.0914 3 43 3C20.9086 3 3 20.9086 3 43C3 65.0914 20.9086 83 43 83Z" stroke="#F4F6FF" stroke-width="5"/>
<path d="M43 43C49.6274 43 55 37.6274 55 31C55 24.3726 49.6274 19 43 19C36.3726 19 31 24.3726 31 31C31 37.6274 36.3726 43 43 43Z" stroke="#F4F6FF" stroke-width="5"/>
<path d="M66.8769 75C66.2405 63.434 62.6993 55 43.0001 55C23.3013 55 19.7601 63.434 19.1235 75" stroke="#F4F6FF" stroke-width="5" stroke-linecap="round"/>
</svg>
