<svg width="16" height="17" viewBox="0 0 16 17" fill="none" xmlns="http://www.w3.org/2000/svg">
<path d="M12.6667 3.5V12C12.6667 13.4002 12.6667 14.1002 12.3942 14.635C12.1545 15.1054 11.7721 15.4878 11.3017 15.7275C10.7668 16 10.0668 16 8.66667 16H6.66667C5.26653 16 4.56647 16 4.03169 15.7275C3.56128 15.4878 3.17883 15.1054 2.93915 14.635C2.66667 14.1002 2.66667 13.4002 2.66667 12V3.5M1 3.5H14.3333M11 3.5L10.7745 2.82339C10.5559 2.16771 10.4466 1.83987 10.2439 1.59748C10.0649 1.38344 9.83508 1.21777 9.57542 1.11565C9.28133 1 8.93583 1 8.24467 1H7.08867C6.3975 1 6.052 1 5.75792 1.11565C5.49827 1.21777 5.2684 1.38344 5.08941 1.59748C4.88671 1.83987 4.77743 2.16771 4.55887 2.82339L4.33333 3.5" stroke="#F4F6FF" stroke-width="2" stroke-linecap="round" stroke-linejoin="round"/>
</svg>
