<svg width="17" height="17" viewBox="0 0 17 17" fill="none" xmlns="http://www.w3.org/2000/svg">
<path fill-rule="evenodd" clip-rule="evenodd" d="M9.04612 16.5H1.38308C0.895224 16.5 0.5 16.1045 0.5 15.6169V1.38307C0.5 0.895285 0.895286 0.5 1.38308 0.5H15.617C16.1047 0.5 16.5 0.895285 16.5 1.38307V15.6169C16.5 16.1046 16.1046 16.5 15.617 16.5H11.5398V10.3039H13.6195L13.9309 7.8892H11.5398V6.34755C11.5398 5.64843 11.7339 5.172 12.7364 5.172L14.0151 5.17144V3.0117C13.794 2.98227 13.0349 2.91652 12.1519 2.91652C10.3083 2.91652 9.04612 4.04184 9.04612 6.1084V7.8892H6.96104V10.3039H9.04612V16.5Z" fill="#4460A0"/>
</svg>
