<svg width="17" height="17" viewBox="0 0 17 17" fill="none" xmlns="http://www.w3.org/2000/svg">
<path fill-rule="evenodd" clip-rule="evenodd" d="M3.94803 8.49999C3.94803 7.98036 4.03433 7.48218 4.18837 7.0149L1.49218 4.95599C0.966711 6.0229 0.670654 7.22508 0.670654 8.49999C0.670654 9.77381 0.966346 10.9753 1.49109 12.0414L4.18582 9.97854C4.03324 9.51345 3.94803 9.01708 3.94803 8.49999Z" fill="#FBBC05"/>
<path fill-rule="evenodd" clip-rule="evenodd" d="M8.68202 3.77273C9.8109 3.77273 10.8305 4.17273 11.6317 4.82727L13.9622 2.5C12.542 1.26364 10.7213 0.5 8.68202 0.5C5.51608 0.5 2.79513 2.31055 1.49219 4.956L4.18838 7.01491C4.80962 5.12909 6.5805 3.77273 8.68202 3.77273Z" fill="#EB4335"/>
<path fill-rule="evenodd" clip-rule="evenodd" d="M8.68202 13.2273C6.5805 13.2273 4.80962 11.8709 4.18838 9.98511L1.49219 12.0437C2.79513 14.6895 5.51608 16.5 8.68202 16.5C10.6361 16.5 12.5016 15.8062 13.9018 14.5062L11.3425 12.5277C10.6204 12.9826 9.71112 13.2273 8.68202 13.2273Z" fill="#34A853"/>
<path fill-rule="evenodd" clip-rule="evenodd" d="M16.3292 8.50002C16.3292 8.02729 16.2564 7.5182 16.1471 7.04547H8.68201V10.1364H12.979C12.7642 11.1902 12.1793 12.0004 11.3425 12.5277L13.9018 14.5062C15.3726 13.1411 16.3292 11.1077 16.3292 8.50002Z" fill="#4285F4"/>
</svg>
