<svg width="106" height="106" viewBox="0 0 106 106" fill="none" xmlns="http://www.w3.org/2000/svg">
<path d="M53 103C80.6142 103 103 80.6142 103 53C103 25.3858 80.6142 3 53 3C25.3858 3 3 25.3858 3 53C3 80.6142 25.3858 103 53 103Z" stroke="#F4F6FF" stroke-width="5"/>
<path d="M53 53C61.2843 53 68 46.2843 68 38C68 29.7157 61.2843 23 53 23C44.7157 23 38 29.7157 38 38C38 46.2843 44.7157 53 53 53Z" stroke="#F4F6FF" stroke-width="5"/>
<path d="M82.846 93C82.0505 78.5425 77.624 68 53 68C28.3765 68 23.95 78.5425 23.1543 93" stroke="#F4F6FF" stroke-width="5" stroke-linecap="round"/>
</svg>
