<svg width="27" height="28" viewBox="0 0 27 28" fill="none" xmlns="http://www.w3.org/2000/svg">
<path d="M13.5 26.5C20.4036 26.5 26 20.9036 26 14C26 7.09644 20.4036 1.5 13.5 1.5C6.59644 1.5 1 7.09644 1 14C1 20.9036 6.59644 26.5 13.5 26.5Z" stroke="#111111" stroke-width="1.5"/>
<path d="M13.5 14C15.5711 14 17.25 12.3211 17.25 10.25C17.25 8.17893 15.5711 6.5 13.5 6.5C11.4289 6.5 9.75 8.17893 9.75 10.25C9.75 12.3211 11.4289 14 13.5 14Z" stroke="#111111" stroke-width="1.5"/>
<path d="M20.9614 24C20.7625 20.3856 19.6559 17.75 13.4999 17.75C7.34402 17.75 6.23739 20.3856 6.03845 24" stroke="#111111" stroke-width="1.5" stroke-linecap="round"/>
</svg>
