<svg width="26" height="25" viewBox="0 0 26 25" fill="none" xmlns="http://www.w3.org/2000/svg">
<path fill-rule="evenodd" clip-rule="evenodd" d="M13 0C12.2969 0 11.6493 0.174756 10.9405 0.46793C10.2559 0.751023 9.46085 1.16827 8.47081 1.68783L6.06673 2.94943C4.85165 3.58706 3.87926 4.09734 3.12845 4.59873C2.35063 5.11819 1.75154 5.66513 1.31526 6.40602C0.880442 7.14443 0.684837 7.944 0.591035 8.89618C0.499989 9.82044 0.499989 10.9571 0.5 12.3867V12.6133C0.499989 14.0428 0.499989 15.1795 0.591035 16.1038C0.684837 17.056 0.880442 17.8556 1.31526 18.594C1.75154 19.3349 2.35063 19.8819 3.12845 20.4013C3.87926 20.9027 4.85164 21.4129 6.06671 22.0506L8.47071 23.3121C9.46079 23.8317 10.2559 24.249 10.9405 24.5321C11.6493 24.8252 12.2969 25 13 25C13.7031 25 14.3507 24.8252 15.0595 24.5321C15.7441 24.249 16.5392 23.8317 17.5292 23.3122L19.9333 22.0506C21.1484 21.4129 22.1207 20.9027 22.8715 20.4013C23.6494 19.8819 24.2485 19.3349 24.6848 18.594C25.1195 17.8556 25.3151 17.056 25.409 16.1038C25.5 15.1795 25.5 14.0429 25.5 12.6134V12.3866C25.5 10.9571 25.5 9.82043 25.409 8.89618C25.3151 7.944 25.1195 7.14443 24.6848 6.40602C24.2485 5.66513 23.6494 5.11819 22.8715 4.59873C22.1207 4.09734 21.1484 3.58706 19.9333 2.94942L17.5292 1.68784C16.5392 1.16828 15.7441 0.751035 15.0595 0.46793C14.3507 0.174756 13.7031 0 13 0ZM9.24512 3.25126C10.2797 2.70834 11.0047 2.32884 11.607 2.07972C12.1933 1.83726 12.6052 1.74419 13 1.74419C13.3948 1.74419 13.8067 1.83726 14.393 2.07972C14.9953 2.32884 15.7203 2.70834 16.7549 3.25126L19.0805 4.47166C20.3476 5.1366 21.2378 5.60502 21.9029 6.04921C22.231 6.26835 22.4888 6.47184 22.6971 6.67644L18.8242 8.61288L8.94064 3.41103L9.24512 3.25126ZM7.1217 4.36557L6.91953 4.47166C5.65245 5.13659 4.76224 5.60502 4.09712 6.04921C3.76897 6.26835 3.51112 6.47184 3.30295 6.67644L13 11.525L16.9037 9.57313L7.36127 4.5508C7.26856 4.50201 7.18827 4.43887 7.1217 4.36557ZM2.46242 8.20624C2.4037 8.45494 2.35931 8.73736 2.32681 9.06719C2.24516 9.89605 2.24419 10.947 2.24419 12.432V12.568C2.24419 14.053 2.24516 15.104 2.32681 15.9328C2.40667 16.7435 2.5584 17.2677 2.81822 17.709C3.07659 18.1477 3.45031 18.5188 4.09712 18.9508C4.76224 19.395 5.65245 19.8634 6.91953 20.5284L9.24512 21.7487C10.2797 22.2916 11.0047 22.6712 11.607 22.9202C11.7972 22.999 11.9691 23.0619 12.1279 23.111V13.039L2.46242 8.20624ZM13.8721 23.111C14.0309 23.0619 14.2028 22.999 14.393 22.9202C14.9953 22.6712 15.7203 22.2916 16.7549 21.7487L19.0805 20.5284C20.3476 19.8634 21.2378 19.395 21.9029 18.9508C22.5497 18.5188 22.9234 18.1477 23.1817 17.709C23.4416 17.2677 23.5934 16.7435 23.6731 15.9328C23.7549 15.104 23.7558 14.053 23.7558 12.568V12.432C23.7558 10.947 23.7549 9.89605 23.6731 9.06719C23.6407 8.73735 23.5963 8.45494 23.5376 8.20623L19.686 10.132V13.6628C19.686 14.1444 19.2956 14.5349 18.814 14.5349C18.3323 14.5349 17.9419 14.1444 17.9419 13.6628V11.0041L13.8721 13.039V23.111Z" fill="#111111"/>
</svg>
