<svg width="26" height="25" viewBox="0 0 26 25" fill="none" xmlns="http://www.w3.org/2000/svg">
<path d="M19 9.40912C19.1505 9.24755 19.2325 9.03387 19.2286 8.81307C19.2247 8.59227 19.1352 8.38161 18.9791 8.22546C18.8229 8.0693 18.6123 7.97986 18.3915 7.97596C18.1707 7.97207 17.957 8.05403 17.7954 8.20457L11.0113 14.9887L8.20453 12.1818C8.04296 12.0313 7.82927 11.9493 7.60848 11.9532C7.38768 11.9571 7.17702 12.0466 7.02087 12.2027C6.86471 12.3589 6.77527 12.5695 6.77137 12.7903C6.76748 13.0111 6.84944 13.2248 6.99998 13.3864L10.4091 16.7955C10.5689 16.9551 10.7855 17.0447 11.0113 17.0447C11.2372 17.0447 11.4538 16.9551 11.6136 16.7955L19 9.40912Z" fill="#111111"/>
<path fill-rule="evenodd" clip-rule="evenodd" d="M13 0C6.09659 0 0.5 5.59659 0.5 12.5C0.5 19.4034 6.09659 25 13 25C19.9034 25 25.5 19.4034 25.5 12.5C25.5 5.59659 19.9034 0 13 0ZM2.20455 12.5C2.20455 9.63687 3.34192 6.891 5.36646 4.86646C7.391 2.84192 10.1369 1.70455 13 1.70455C15.8631 1.70455 18.609 2.84192 20.6335 4.86646C22.6581 6.891 23.7955 9.63687 23.7955 12.5C23.7955 15.3631 22.6581 18.109 20.6335 20.1335C18.609 22.1581 15.8631 23.2955 13 23.2955C10.1369 23.2955 7.391 22.1581 5.36646 20.1335C3.34192 18.109 2.20455 15.3631 2.20455 12.5Z" fill="#111111"/>
</svg>
