<svg width="25" height="25" viewBox="0 0 25 25" fill="none" xmlns="http://www.w3.org/2000/svg">
<path fill-rule="evenodd" clip-rule="evenodd" d="M21.875 4.6875H19.5312L18.75 3.125C18.2898 2.21641 18.05 1.5625 17.1875 1.5625H7.8125C6.95 1.5625 6.66406 2.30781 6.25 3.125L5.46875 4.6875H3.125C1.39922 4.6875 0 6.08672 0 7.8125V20.3125C0 22.0383 1.39922 23.4375 3.125 23.4375H21.875C23.6008 23.4375 25 22.0383 25 20.3125V7.8125C25 6.08672 23.6008 4.6875 21.875 4.6875ZM12.5 20.3125C9.04844 20.3125 6.25 17.5141 6.25 14.0625C6.25 10.6109 9.04844 7.8125 12.5 7.8125C15.9516 7.8125 18.75 10.6109 18.75 14.0625C18.75 17.5141 15.9516 20.3125 12.5 20.3125ZM12.5 9.375C9.91172 9.375 7.8125 11.4742 7.8125 14.0625C7.8125 16.6508 9.91172 18.75 12.5 18.75C15.0883 18.75 17.1875 16.6508 17.1875 14.0625C17.1875 11.4742 15.0883 9.375 12.5 9.375Z" fill="#FAF7F0"/>
</svg>
