<svg width="181" height="26" viewBox="0 0 181 26" fill="none" xmlns="http://www.w3.org/2000/svg">
<g clip-path="url(#clip0_1_5)">
<path d="M33.128 17.12C34.3653 17.12 35.2827 16.8747 35.88 16.384C36.4773 15.872 36.776 15.2427 36.776 14.496C36.776 13.8347 36.5413 13.3013 36.072 12.896C35.624 12.4693 34.9307 12.1173 33.992 11.84L31.912 11.2C30.8453 10.8373 29.9067 10.432 29.096 9.984C28.3067 9.536 27.688 8.96 27.24 8.256C26.8133 7.53067 26.6 6.64533 26.6 5.6C26.6 3.872 27.24 2.50667 28.52 1.504C29.8213 0.501333 31.592 0 33.832 0C35.0267 0 36.0827 0.128 37 0.384001C37.9387 0.618667 38.6747 0.949333 39.208 1.376C39.7627 1.80267 40.04 2.304 40.04 2.88C40.04 3.28533 39.9333 3.648 39.72 3.968C39.528 4.26667 39.2827 4.512 38.984 4.704C38.4933 4.34133 37.8213 4.032 36.968 3.776C36.1147 3.49867 35.1867 3.36 34.184 3.36C33.0747 3.36 32.2213 3.56267 31.624 3.968C31.0267 4.37333 30.728 4.91733 30.728 5.6C30.728 6.15467 30.9307 6.60267 31.336 6.944C31.7627 7.28533 32.4027 7.584 33.256 7.84L35.112 8.384C36.9467 8.93867 38.376 9.696 39.4 10.656C40.424 11.5947 40.936 12.8853 40.936 14.528C40.936 16.2773 40.264 17.696 38.92 18.784C37.5973 19.872 35.6987 20.416 33.224 20.416C31.9227 20.416 30.7707 20.2773 29.768 20C28.7653 19.7227 27.9653 19.3387 27.368 18.848C26.792 18.3573 26.504 17.8027 26.504 17.184C26.504 16.7147 26.6533 16.3093 26.952 15.968C27.2507 15.6267 27.5707 15.3707 27.912 15.2C28.4667 15.6693 29.1813 16.1067 30.056 16.512C30.9307 16.9173 31.9547 17.12 33.128 17.12Z" fill="#4A4947"/>
<path d="M46.026 14.368L45.866 11.616L54.442 10.336C54.378 9.52532 54.0687 8.82132 53.514 8.22399C52.9593 7.62666 52.1487 7.32799 51.082 7.32799C49.994 7.32799 49.0873 7.71199 48.362 8.47999C47.6367 9.22666 47.2633 10.304 47.242 11.712L47.338 13.376C47.53 14.7413 48.0527 15.744 48.906 16.384C49.7807 17.024 50.8793 17.344 52.202 17.344C53.098 17.344 53.93 17.216 54.698 16.96C55.466 16.6827 56.074 16.384 56.522 16.064C56.8207 16.256 57.0553 16.5013 57.226 16.8C57.418 17.0773 57.514 17.3867 57.514 17.728C57.514 18.2827 57.2687 18.7627 56.778 19.168C56.2873 19.552 55.626 19.8507 54.794 20.064C53.962 20.2773 53.0127 20.384 51.946 20.384C50.3033 20.384 48.842 20.0853 47.562 19.488C46.3033 18.8693 45.3113 17.952 44.586 16.736C43.882 15.52 43.53 14.0053 43.53 12.192C43.53 10.8907 43.7327 9.74932 44.138 8.76799C44.5433 7.78666 45.0873 6.97599 45.77 6.33599C46.474 5.67466 47.2847 5.18399 48.202 4.86399C49.1193 4.52266 50.0793 4.35199 51.082 4.35199C52.49 4.35199 53.7167 4.63999 54.762 5.21599C55.8287 5.77066 56.6607 6.54932 57.258 7.55199C57.8767 8.55466 58.186 9.70666 58.186 11.008C58.186 11.6053 58.026 12.0533 57.706 12.352C57.4073 12.6293 56.9807 12.8 56.426 12.864L46.026 14.368Z" fill="#4A4947"/>
<path d="M68.4965 20.384C67.6432 20.384 66.8645 20.2667 66.1605 20.032C65.4778 19.8187 64.9125 19.5733 64.4645 19.296V15.904C64.8698 16.2453 65.3498 16.5547 65.9045 16.832C66.4805 17.088 67.1525 17.216 67.9205 17.216C69.2005 17.216 70.2138 16.8213 70.9605 16.032C71.7072 15.2213 72.0805 13.9733 72.0805 12.288C72.0805 11.1147 71.8992 10.1867 71.5365 9.50399C71.1952 8.79999 70.7152 8.28799 70.0965 7.96799C69.4778 7.64799 68.7845 7.48799 68.0165 7.48799C67.4192 7.48799 66.8965 7.56266 66.4485 7.71199C66.0005 7.83999 65.6165 7.99999 65.2965 8.19199V18.304H61.3605V7.80799C61.3605 7.31732 61.4565 6.91199 61.6485 6.59199C61.8405 6.27199 62.1605 5.97332 62.6085 5.69599C63.2272 5.33332 63.9952 5.02399 64.9125 4.76799C65.8298 4.49066 66.8645 4.35199 68.0165 4.35199C69.5738 4.35199 70.9605 4.62932 72.1765 5.18399C73.3925 5.71732 74.3418 6.57066 75.0245 7.74399C75.7285 8.91732 76.0805 10.432 76.0805 12.288C76.0805 14.08 75.7498 15.5733 75.0885 16.768C74.4485 17.9627 73.5525 18.8693 72.4005 19.488C71.2698 20.0853 69.9685 20.384 68.4965 20.384ZM65.2965 17.216V25.664C65.1258 25.728 64.8805 25.7813 64.5605 25.824C64.2405 25.888 63.8885 25.92 63.5045 25.92C62.7792 25.92 62.2352 25.7813 61.8725 25.504C61.5312 25.2267 61.3605 24.7467 61.3605 24.064V17.184L65.2965 17.216Z" fill="#4A4947"/>
<path d="M85.4688 17.408C86.1087 17.408 86.6847 17.344 87.1967 17.216C87.7087 17.088 88.0821 16.9493 88.3167 16.8V13.152L85.1488 13.472C84.2741 13.536 83.6021 13.728 83.1328 14.048C82.6848 14.3467 82.4607 14.7947 82.4607 15.392C82.4607 16.0107 82.7061 16.5013 83.1967 16.864C83.6874 17.2267 84.4447 17.408 85.4688 17.408ZM85.3087 4.35199C87.3994 4.35199 89.0634 4.79999 90.3008 5.69599C91.5381 6.57066 92.1568 7.95732 92.1568 9.85599V17.216C92.1568 17.728 92.0287 18.1333 91.7728 18.432C91.5381 18.7307 91.2288 18.9973 90.8447 19.232C90.2474 19.5733 89.4901 19.8507 88.5728 20.064C87.6554 20.2987 86.6208 20.416 85.4688 20.416C83.3354 20.416 81.6608 20.0107 80.4447 19.2C79.2287 18.368 78.6208 17.1413 78.6208 15.52C78.6208 14.0907 79.0687 13.0027 79.9648 12.256C80.8821 11.488 82.2048 11.0187 83.9327 10.848L88.2848 10.4V9.82399C88.2848 8.97066 87.9861 8.35199 87.3887 7.96799C86.8128 7.58399 85.9914 7.39199 84.9248 7.39199C84.0928 7.39199 83.2821 7.49866 82.4928 7.71199C81.7034 7.92532 80.9994 8.18132 80.3808 8.47999C80.1674 8.30932 79.9754 8.07466 79.8047 7.77599C79.6341 7.47732 79.5488 7.16799 79.5488 6.84799C79.5488 6.07999 79.9754 5.51466 80.8288 5.15199C81.4261 4.87466 82.1194 4.67199 82.9088 4.54399C83.7194 4.41599 84.5194 4.35199 85.3087 4.35199Z" fill="#4A4947"/>
<path d="M96.2363 11.488H100.172V15.264C100.172 15.968 100.375 16.4693 100.78 16.768C101.207 17.0667 101.804 17.216 102.572 17.216C102.914 17.216 103.276 17.1733 103.66 17.088C104.066 17.0027 104.407 16.896 104.684 16.768C104.834 16.9387 104.972 17.1413 105.1 17.376C105.228 17.6107 105.292 17.8987 105.292 18.24C105.292 18.8587 104.994 19.3707 104.396 19.776C103.82 20.1813 102.914 20.384 101.676 20.384C99.9909 20.384 98.6576 20.0107 97.6762 19.264C96.7162 18.496 96.2363 17.2587 96.2363 15.552V11.488ZM98.6363 8.22401V5.12001H104.908C104.994 5.26934 105.079 5.48268 105.164 5.76001C105.271 6.03734 105.324 6.32534 105.324 6.62401C105.324 7.15734 105.196 7.56268 104.94 7.84001C104.684 8.09601 104.354 8.22401 103.948 8.22401H98.6363ZM100.172 12.352H96.2363V0.832006C96.4069 0.768005 96.6523 0.704005 96.9723 0.640004C97.3136 0.576005 97.6656 0.544006 98.0283 0.544006C98.7749 0.544006 99.3189 0.682672 99.6602 0.960004C100.002 1.21601 100.172 1.68534 100.172 2.36801V12.352Z" fill="#4A4947"/>
<path d="M108.392 14.144V11.616H112.328V14.08C112.328 15.2107 112.616 16.0213 113.192 16.512C113.789 17.0027 114.61 17.248 115.656 17.248C116.338 17.248 116.914 17.184 117.384 17.056C117.853 16.928 118.205 16.7893 118.44 16.64V11.616H122.376V16.96C122.376 17.4507 122.29 17.8667 122.12 18.208C121.97 18.528 121.672 18.8267 121.224 19.104C120.605 19.4667 119.816 19.7653 118.856 20C117.917 20.256 116.84 20.384 115.624 20.384C114.152 20.384 112.872 20.1707 111.784 19.744C110.696 19.3173 109.853 18.6453 109.256 17.728C108.68 16.7893 108.392 15.5947 108.392 14.144ZM122.376 13.152H118.44V4.83197C118.61 4.7893 118.856 4.74664 119.176 4.70397C119.517 4.63997 119.869 4.60797 120.232 4.60797C120.978 4.60797 121.522 4.73597 121.864 4.99197C122.205 5.24797 122.376 5.72797 122.376 6.43197V13.152ZM112.328 13.152H108.392V4.83197C108.562 4.7893 108.808 4.74664 109.128 4.70397C109.448 4.63997 109.8 4.60797 110.184 4.60797C110.93 4.60797 111.474 4.73597 111.816 4.99197C112.157 5.24797 112.328 5.72797 112.328 6.43197V13.152Z" fill="#4A4947"/>
<path d="M133.308 7.23198H137.372V19.712L135.484 19.968C134.822 19.968 134.289 19.776 133.884 19.392C133.5 18.9867 133.308 18.464 133.308 17.824V7.23198ZM135.484 19.968V16.64H145.66C145.788 16.8107 145.894 17.0347 145.98 17.312C146.086 17.5893 146.14 17.8987 146.14 18.24C146.14 18.816 146.001 19.2533 145.724 19.552C145.468 19.8293 145.116 19.968 144.668 19.968H135.484ZM137.372 11.776H133.308V0.511979C133.5 0.469313 133.766 0.41598 134.108 0.351979C134.47 0.28798 134.833 0.255981 135.196 0.255981C135.964 0.255981 136.518 0.394647 136.86 0.671979C137.201 0.927979 137.372 1.41865 137.372 2.14398V11.776Z" fill="#4A4947"/>
<path d="M163.646 12.352C163.646 13.9947 163.326 15.424 162.686 16.64C162.046 17.8347 161.139 18.7627 159.966 19.424C158.814 20.064 157.449 20.384 155.87 20.384C154.291 20.384 152.915 20.064 151.742 19.424C150.569 18.7627 149.651 17.8347 148.99 16.64C148.35 15.4453 148.03 14.016 148.03 12.352C148.03 10.7093 148.361 9.29066 149.022 8.09599C149.683 6.90132 150.601 5.98399 151.774 5.34399C152.947 4.68266 154.313 4.35199 155.87 4.35199C157.427 4.35199 158.782 4.68266 159.934 5.34399C161.107 5.98399 162.014 6.91199 162.654 8.12799C163.315 9.32266 163.646 10.7307 163.646 12.352ZM155.87 7.48799C154.697 7.48799 153.769 7.91466 153.086 8.76799C152.425 9.62132 152.094 10.816 152.094 12.352C152.094 13.9307 152.425 15.1467 153.086 16C153.747 16.832 154.675 17.248 155.87 17.248C157.043 17.248 157.961 16.8213 158.622 15.968C159.283 15.1147 159.614 13.9093 159.614 12.352C159.614 10.8373 159.283 9.65332 158.622 8.79999C157.961 7.92532 157.043 7.48799 155.87 7.48799Z" fill="#4A4947"/>
<path d="M168.745 14.368L168.585 11.616L177.161 10.336C177.097 9.52532 176.787 8.82132 176.233 8.22399C175.678 7.62666 174.867 7.32799 173.801 7.32799C172.713 7.32799 171.806 7.71199 171.081 8.47999C170.355 9.22666 169.982 10.304 169.961 11.712L170.057 13.376C170.249 14.7413 170.771 15.744 171.625 16.384C172.499 17.024 173.598 17.344 174.921 17.344C175.817 17.344 176.649 17.216 177.417 16.96C178.185 16.6827 178.793 16.384 179.241 16.064C179.539 16.256 179.774 16.5013 179.945 16.8C180.137 17.0773 180.233 17.3867 180.233 17.728C180.233 18.2827 179.987 18.7627 179.497 19.168C179.006 19.552 178.345 19.8507 177.513 20.064C176.681 20.2773 175.731 20.384 174.665 20.384C173.022 20.384 171.561 20.0853 170.281 19.488C169.022 18.8693 168.03 17.952 167.305 16.736C166.601 15.52 166.249 14.0053 166.249 12.192C166.249 10.8907 166.451 9.74932 166.857 8.76799C167.262 7.78666 167.806 6.97599 168.489 6.33599C169.193 5.67466 170.003 5.18399 170.921 4.86399C171.838 4.52266 172.798 4.35199 173.801 4.35199C175.209 4.35199 176.435 4.63999 177.481 5.21599C178.547 5.77066 179.379 6.54932 179.977 7.55199C180.595 8.55466 180.905 9.70666 180.905 11.008C180.905 11.6053 180.745 12.0533 180.425 12.352C180.126 12.6293 179.699 12.8 179.145 12.864L168.745 14.368Z" fill="#4A4947"/>
<path d="M12 5.93597C12 8.69739 9.76142 10.936 7 10.936C4.23858 10.936 2 8.69739 2 5.93597C2 3.17455 4.23858 0.935974 7 0.935974C9.76142 0.935974 12 3.17455 12 5.93597Z" fill="#D8D2C2"/>
<path d="M21 12.936C21 15.6974 18.7614 17.936 16 17.936C13.2386 17.936 11 15.6974 11 12.936C11 10.1746 13.2386 7.93597 16 7.93597C18.7614 7.93597 21 10.1746 21 12.936Z" fill="#4A4947"/>
<path d="M10 16.936C10 19.6974 7.76142 21.936 5 21.936C2.23858 21.936 0 19.6974 0 16.936C0 14.1746 2.23858 11.936 5 11.936C7.76142 11.936 10 14.1746 10 16.936Z" fill="#B17457"/>
</g>
<defs>
<clipPath id="clip0_1_5">
<rect width="181" height="26" fill="white"/>
</clipPath>
</defs>
</svg>
