<svg width="668" height="668" viewBox="0 0 668 668" fill="none" xmlns="http://www.w3.org/2000/svg">
<path fill-rule="evenodd" clip-rule="evenodd" d="M667.333 334C667.333 518.093 518.093 667.333 334 667.333C149.905 667.333 0.666626 518.093 0.666626 334C0.666626 149.905 149.905 0.666626 334 0.666626C518.093 0.666626 667.333 149.905 667.333 334ZM434 234C434 289.23 389.23 334 334 334C278.77 334 234 289.23 234 234C234 178.772 278.77 134 334 134C389.23 134 434 178.772 434 234ZM334 617.333C393.467 617.333 448.657 599.013 494.23 567.707C514.36 553.88 522.96 527.54 511.26 506.107C487 461.677 437.007 434 333.997 434C230.99 434 180.999 461.673 156.738 506.107C145.035 527.54 153.637 553.877 173.765 567.703C219.339 599.01 274.53 617.333 334 617.333Z" fill="#4A4947"/>
</svg>
